[h264 @ 0x5597186aa180] Reinit context to 1280x720, pix_fmt: yuv420p
Input #0, mov,mp4,m4a,3gp,3g2,mj2, from '/var/www/html/project/media/video/original/lv_0_20241211172105.mp4':
  Metadata:
    major_brand     : isom
    minor_version   : 512
    compatible_brands: isomiso2avc1mp41
    Hw              : 1
    LvMetaInfo      : {"data":{"adsTemplateId":"","appVersion":"13.3.0","businessComponentId":"","businessTemplateId":"","capabilityName":"","capability_extra":"","commercial_params":{"commercial_audio_music_cnt":0,"commercial_sticker_cnt":0,"commercial_text_font_cnt":0,"comme
    aigc_info       : {"aigc_label_type":0,"source_info":""}
    bitrate         : 10000000
    maxrate         : 30000000
    te_is_reencode  : 1
    encoder         : bytevehwavc
  Duration: 00:00:27.21, start: 0.000000, bitrate: 8122 kb/s
    Stream #0:0(und): Video: h264 (High), 1 reference frame (avc1 / 0x31637661), yuv420p(tv, bt709, left), 1280x720, 7927 kb/s, 30 fps, 30 tbr, 1000k tbn, 2000k tbc (default)
    Metadata:
      handler_name    : VideoHandler
    Stream #0:1(und): Audio: aac (LC) (mp4a / 0x6134706D), 44100 Hz, stereo, fltp, 202 kb/s (default)
    Metadata:
      handler_name    : SoundHandler
Input #1, png_pipe, from '/var/www/html/project/static/images/templates/logo.png':
  Duration: N/A, bitrate: N/A
    Stream #1:0: Video: png, 1 reference frame, rgba(pc), 1920x1080 [SAR 2835:2835 DAR 16:9], 25 tbr, 25 tbn, 25 tbc
[h264 @ 0x5597186f2d80] Reinit context to 1280x720, pix_fmt: yuv420p
Input #2, mov,mp4,m4a,3gp,3g2,mj2, from '/var/www/html/project/static/images/templates/Codino.mp4':
  Metadata:
    major_brand     : mp42
    minor_version   : 1
    compatible_brands: isommp41mp42
    creation_time   : 2021-07-11T07:02:58.000000Z
  Duration: 00:00:02.00, start: 0.000000, bitrate: 1007 kb/s
    Stream #2:0(ita): Audio: aac (LC) (mp4a / 0x6134706D), 44100 Hz, stereo, fltp, 102 kb/s (default)
    Metadata:
      creation_time   : 2021-07-11T07:02:58.000000Z
      handler_name    : Core Media Audio
    Stream #2:1(und): Video: h264 (High), 1 reference frame (avc1 / 0x31637661), yuv420p(tv, bt709, progressive, left), 1280x720 [SAR 1:1 DAR 16:9], 813 kb/s, 25 fps, 25 tbr, 25k tbn, 50k tbc (default)
    Metadata:
      creation_time   : 2021-07-11T07:02:58.000000Z
      handler_name    : Core Media Video
[Parsed_scale_0 @ 0x559718761ac0] w:1280 h:720 flags:'bilinear' interl:0
[Parsed_scale_2 @ 0x5597187291c0] w:1280 h:720 flags:'bilinear' interl:0
[Parsed_scale_4 @ 0x559718797400] w:1280 h:720 flags:'bilinear' interl:0
Stream mapping:
  Stream #0:0 (h264) -> scale
  Stream #0:1 (aac) -> concat:in0:a0
  Stream #1:0 (png) -> scale
  Stream #2:0 (aac) -> concat:in1:a0
  Stream #2:1 (h264) -> scale
  concat:out:v0 -> Stream #0:0 (libx264)
  concat:out:a0 -> Stream #0:1 (aac)
Press [q] to stop, [?] for help
[h264 @ 0x559718706000] Reinit context to 1280x720, pix_fmt: yuv420p
[h264 @ 0x559718adeac0] Reinit context to 1280x720, pix_fmt: yuv420p
[Parsed_scale_0 @ 0x559719a34780] w:1280 h:720 flags:'bilinear' interl:0
[Parsed_scale_2 @ 0x559718826800] w:1280 h:720 flags:'bilinear' interl:0
[Parsed_scale_4 @ 0x559719a3dc80] w:1280 h:720 flags:'bilinear' interl:0
[graph 0 input from stream 0:0 @ 0x559719a423c0] w:1280 h:720 pixfmt:yuv420p tb:1/1000000 fr:30/1 sar:0/1 sws_param:flags=2
[graph 0 input from stream 1:0 @ 0x559719a43440] w:1920 h:1080 pixfmt:rgba tb:1/25 fr:25/1 sar:2835/2835 sws_param:flags=2
[graph 0 input from stream 2:1 @ 0x559719a444c0] w:1280 h:720 pixfmt:yuv420p tb:1/25000 fr:25/1 sar:1/1 sws_param:flags=2
[graph_0_in_0_1 @ 0x559719a45440] tb:1/44100 samplefmt:fltp samplerate:44100 chlayout:0x3
[graph_0_in_2_0 @ 0x559719a46580] tb:1/44100 samplefmt:fltp samplerate:44100 chlayout:0x3
[Parsed_scale_0 @ 0x559719a34780] w:1280 h:720 fmt:yuv420p sar:0/1 -> w:1280 h:720 fmt:yuv420p sar:0/1 flags:0x2
[Parsed_setsar_1 @ 0x559719a3c400] w:1280 h:720 sar:0/1 dar:16/9 -> sar:1/1 dar:16/9
[Parsed_scale_2 @ 0x559718826800] w:1920 h:1080 fmt:rgba sar:2835/2835 -> w:1280 h:720 fmt:yuva420p sar:1/1 flags:0x2
[Parsed_setsar_3 @ 0x559719a3d080] w:1280 h:720 sar:1/1 dar:16/9 -> sar:1/1 dar:16/9
[Parsed_overlay_6 @ 0x559719a3f300] main w:1280 h:720 fmt:yuv420p overlay w:1280 h:720 fmt:yuva420p
[Parsed_overlay_6 @ 0x559719a3f300] [framesync @ 0x559719a3f428] Selected 1/1000000 time base
[Parsed_overlay_6 @ 0x559719a3f300] [framesync @ 0x559719a3f428] Sync level 2
[Parsed_scale_4 @ 0x559719a3dc80] w:1280 h:720 fmt:yuv420p sar:1/1 -> w:1280 h:720 fmt:yuv420p sar:1/1 flags:0x2
[Parsed_setsar_5 @ 0x559719a3e740] w:1280 h:720 sar:1/1 dar:16/9 -> sar:1/1 dar:16/9
[libx264 @ 0x5597186c9840] using SAR=1/1
[libx264 @ 0x5597186c9840] using cpu capabilities: MMX2 SSE2Fast SSSE3 SSE4.2 AVX FMA3 BMI2 AVX2
[libx264 @ 0x5597186c9840] profile High, level 3.1
[libx264 @ 0x5597186c9840] 264 - core 155 r2917 0a84d98 - H.264/MPEG-4 AVC codec - Copyleft 2003-2018 - http://www.videolan.org/x264.html - options: cabac=1 ref=1 deblock=1:0:0 analyse=0x3:0x113 me=hex subme=2 psy=1 psy_rd=1.00:0.00 mixed_ref=0 me_range=16 chroma_me=1 trellis=0 8x8dct=1 cqm=0 deadzone=21,11 fast_pskip=1 chroma_qp_offset=0 threads=22 lookahead_threads=5 sliced_threads=0 nr=0 decimate=1 interlaced=0 bluray_compat=0 constrained_intra=0 bframes=3 b_pyramid=2 b_adapt=1 b_bias=0 direct=1 weightb=1 open_gop=0 weightp=1 keyint=250 keyint_min=25 scenecut=40 intra_refresh=0 rc_lookahead=10 rc=crf mbtree=1 crf=18.0 qcomp=0.60 qpmin=0 qpmax=69 qpstep=4 ip_ratio=1.40 aq=1:1.00
Output #0, mp4, to '/var/www/html/project/media/video/watermarks/lv_0_20241211172105.mp4':
  Metadata:
    major_brand     : isom
    minor_version   : 512
    compatible_brands: isomiso2avc1mp41
    Hw              : 1
    LvMetaInfo      : {"data":{"adsTemplateId":"","appVersion":"13.3.0","businessComponentId":"","businessTemplateId":"","capabilityName":"","capability_extra":"","commercial_params":{"commercial_audio_music_cnt":0,"commercial_sticker_cnt":0,"commercial_text_font_cnt":0,"comme
    aigc_info       : {"aigc_label_type":0,"source_info":""}
    bitrate         : 10000000
    maxrate         : 30000000
    te_is_reencode  : 1
    encoder         : Lavf58.29.100
    Stream #0:0: Video: h264 (libx264), 1 reference frame (avc1 / 0x31637661), yuv420p(progressive), 1280x720 [SAR 1:1 DAR 16:9], q=-1--1, 30 fps, 15360 tbn, 30 tbc (default)
    Metadata:
      encoder         : Lavc58.54.100 libx264
    Side data:
      cpb: bitrate max/min/avg: 0/0/0 buffer size: 0 vbv_delay: -1
    Stream #0:1: Audio: aac (LC) (mp4a / 0x6134706D), 44100 Hz, stereo, fltp, delay 1024, 128 kb/s (default)
    Metadata:
      encoder         : Lavc58.54.100 aac
[Parsed_overlay_6 @ 0x559719a3f300] [framesync @ 0x559719a3f428] Sync level 0
[Parsed_concat_7 @ 0x559719a40440] EOF on in0:v0, 1 streams left in segment.
[Parsed_concat_7 @ 0x559719a40440] EOF on in0:a0, 0 streams left in segment.
[Parsed_concat_7 @ 0x559719a40440] Segment finished at pts=27167392
[Parsed_concat_7 @ 0x559719a40440] EOF on in1:a0, 1 streams left in segment.
[Parsed_concat_7 @ 0x559719a40440] EOF on in1:v0, 0 streams left in segment.
[Parsed_concat_7 @ 0x559719a40440] Segment finished at pts=29186077
No more output streams to write to, finishing.
frame=  865 fps= 65 q=-1.0 Lsize=   32857kB time=00:00:29.18 bitrate=9221.8kbits/s speed=2.18x    
[AVIOContext @ 0x5597186a8440] Statistics: 0 seeks, 27 writeouts
video:32337kB audio:488kB subtitle:0kB other streams:0kB global headers:0kB muxing overhead: 0.094239%
Input file #0 (/var/www/html/project/media/video/original/lv_0_20241211172105.mp4):
  Input stream #0:0 (video): 815 packets read (26920839 bytes); 815 frames decoded; 
  Input stream #0:1 (audio): 1172 packets read (688228 bytes); 1170 frames decoded (1198080 samples); 
  Total: 1987 packets (27609067 bytes) demuxed
Input file #1 (/var/www/html/project/static/images/templates/logo.png):
  Input stream #1:0 (video): 1 packets read (111578 bytes); 1 frames decoded; 
  Total: 1 packets (111578 bytes) demuxed
Input file #2 (/var/www/html/project/static/images/templates/Codino.mp4):
  Input stream #2:0 (audio): 89 packets read (26579 bytes); 87 frames decoded (89024 samples); 
  Input stream #2:1 (video): 50 packets read (203365 bytes); 50 frames decoded; 
  Total: 139 packets (229944 bytes) demuxed
Output file #0 (/var/www/html/project/media/video/watermarks/lv_0_20241211172105.mp4):
  Output stream #0:0 (video): 865 frames encoded; 865 packets muxed (33113535 bytes); 
  Output stream #0:1 (audio): 1257 frames encoded (1287104 samples); 1258 packets muxed (499965 bytes); 
  Total: 2123 packets (33613500 bytes) muxed
[AVIOContext @ 0x5597186ca400] Statistics: 2 seeks, 132 writeouts
[libx264 @ 0x5597186c9840] frame I:8     Avg QP:17.84  size: 88554
[libx264 @ 0x5597186c9840] frame P:388   Avg QP:20.03  size: 48752
[libx264 @ 0x5597186c9840] frame B:469   Avg QP:21.61  size: 28760
[libx264 @ 0x5597186c9840] consecutive B-frames: 22.1% 13.2% 11.1% 53.6%
[libx264 @ 0x5597186c9840] mb I  I16..4: 16.5% 34.6% 48.9%
[libx264 @ 0x5597186c9840] mb P  I16..4: 12.5% 27.8%  8.1%  P16..4: 23.3% 11.7%  9.1%  0.0%  0.0%    skip: 7.6%
[libx264 @ 0x5597186c9840] mb B  I16..4:  9.3% 15.8%  2.0%  B16..8: 26.0% 12.8%  2.6%  direct:22.5%  skip: 9.0%  L0:45.1% L1:31.9% BI:23.0%
[libx264 @ 0x5597186c9840] 8x8 transform intra:57.2% inter:60.6%
[libx264 @ 0x5597186c9840] coded y,uvDC,uvAC intra: 62.4% 81.4% 36.7% inter: 40.5% 76.4% 13.4%
[libx264 @ 0x5597186c9840] i16 v,h,dc,p: 37% 22% 28% 12%
[libx264 @ 0x5597186c9840] i8 v,h,dc,ddl,ddr,vr,hd,vl,hu: 21% 29% 19%  8%  4%  4%  5%  5%  7%
[libx264 @ 0x5597186c9840] i4 v,h,dc,ddl,ddr,vr,hd,vl,hu: 23% 24% 14%  7%  6%  6%  7%  6%  7%
[libx264 @ 0x5597186c9840] i8c dc,h,v,p: 41% 26% 20% 13%
[libx264 @ 0x5597186c9840] Weighted P-Frames: Y:11.3% UV:9.0%
[libx264 @ 0x5597186c9840] kb/s:9082.38
[aac @ 0x55971886ed80] Qavg: 2437.178
[AVIOContext @ 0x5597186b13c0] Statistics: 44036602 bytes read, 952 seeks
[AVIOContext @ 0x5597186bc840] Statistics: 111578 bytes read, 0 seeks
[AVIOContext @ 0x5597186f8480] Statistics: 1530915 bytes read, 42 seeks
